PathFileType	4	(X/Y/Z)	./resultDataOpenSim/trcMotMarkerGrf/sub10/qtm-01-08.trc
DataRate	CameraRate	NumFrames	NumMarkers	Units	OrigDataRate	OrigDataStartFrame	OrigNumFrames
250.000000	250.000000	7	24	m	250.000000	109	435
Frame#	Time	L.Toe.Tip			R.Toe.Tip			L.Ankle.Lat			R.Ankle.Lat			L.Ankle.Med			R.Ankle.Med			L.Heel			R.Heel			L.Knee.Lat			R.Knee.Lat			L.Knee.Med			R.Knee.Med			L.Thigh.Upper			R.Thigh.Upper			L.ASIS			R.ASIS			V.Sacral			L.Acromium			R.Acromium			C7			L.Elbow			R.Elbow			L.Wrist.Lat			R.Wrist.Lat
		X1	Y1	Z1	X2	Y2	Z2	X3	Y3	Z3	X4	Y4	Z4	X5	Y5	Z5	X6	Y6	Z6	X7	Y7	Z7	X8	Y8	Z8	X9	Y9	Z9	X10	Y10	Z10	X11	Y11	Z11	X12	Y12	Z12	X13	Y13	Z13	X14	Y14	Z14	X15	Y15	Z15	X16	Y16	Z16	X17	Y17	Z17	X18	Y18	Z18	X19	Y19	Z19	X20	Y20	Z20	X21	Y21	Z21	X22	Y22	Z22	X23	Y23	Z23	X24	Y24	Z24

109	0.432	-0.46301077	0.061835671	-0.22490687	-0.77817685	0.038942446	-0.086956809	-0.59670023	0.081769232	-0.23613043	-0.9181388	0.053298663	-0.050163282	-0.5777741	0.10236086	-0.15348867	-0.89910474	0.085337479	-0.13202464	-0.65278955	0.046306444	-0.18347555	-0.96987868	0.031912373	-0.10169549	-0.56649266	0.47384391	-0.25076209	-0.83938766	0.44846191	0.015132659	-0.54467789	0.44812052	-0.13211116	-0.82264009	0.45186892	-0.11462689	-0.69259805	0.8347685	-0.2963578	-0.77878031	0.85890953	0.078449032	-0.6505735	0.9403618	-0.21960841	-0.68494095	0.94439833	0.020090819	-0.86231351	0.96677309	-0.13235223	-0.71022952	1.4220254	-0.26912057	-0.73333797	1.4093474	0.056927758	-0.80721285	1.4424268	-0.11288722	-0.83002394	1.1038229	-0.331131	-0.75315813	1.0550008	0.11833585	-0.73322078	0.87988341	-0.354593	-0.55841822	0.89992602	0.12498805
110	0.436	-0.44318755	0.063457134	-0.22276642	-0.77816496	0.038894923	-0.086955886	-0.57731524	0.079967004	-0.23477387	-0.91790284	0.053320306	-0.050390529	-0.55918666	0.10152359	-0.15217912	-0.89893504	0.085262889	-0.13226208	-0.63316178	0.043759451	-0.18202501	-0.9698416	0.032098684	-0.10196296	-0.55857716	0.47267997	-0.25059741	-0.83647203	0.44795819	0.014725367	-0.53682904	0.44757427	-0.13182572	-0.81935291	0.45151071	-0.11496465	-0.68560165	0.83373229	-0.29615536	-0.77470562	0.85818642	0.07821432	-0.6441133	0.93915688	-0.21925544	-0.67999474	0.94325904	0.020510749	-0.85641917	0.96528669	-0.13341407	-0.7044824	1.4209041	-0.26886198	-0.72753369	1.4080937	0.05724702	-0.80130667	1.4412838	-0.11264202	-0.82507011	1.103209	-0.33095075	-0.74435722	1.0533045	0.11870093	-0.73014037	0.87882504	-0.3556492	-0.54709672	0.90130102	0.12325078
111	0.44	-0.42346859	0.065324168	-0.22045582	-0.77816506	0.038831925	-0.086971314	-0.55793396	0.078446387	-0.2333694	-0.91764168	0.053369146	-0.050627819	-0.54063511	0.10101743	-0.15087456	-0.89873353	0.085242904	-0.13248428	-0.61398441	0.041811934	-0.18049228	-0.96979927	0.032273661	-0.10213122	-0.5506783	0.47143801	-0.25050566	-0.833277	0.44743331	0.014369297	-0.52909558	0.44690105	-0.13160791	-0.81593053	0.45112027	-0.1152964	-0.67858038	0.8326109	-0.29595912	-0.77056138	0.8574098	0.07795069	-0.63778992	0.93787975	-0.21899756	-0.67500072	0.94211618	0.020916418	-0.85050022	0.96371756	-0.13448136	-0.69870122	1.4197168	-0.26860169	-0.72169379	1.4067781	0.057570672	-0.79538065	1.4400883	-0.11238826	-0.82034351	1.1025662	-0.33107584	-0.73556649	1.0515855	0.11907131	-0.72700203	0.87773755	-0.35669687	-0.53586837	0.90268656	0.12149302
112	0.444	-0.40390412	0.067460383	-0.21798537	-0.77817705	0.038744652	-0.08701104	-0.53862726	0.077195221	-0.23191841	-0.91737067	0.053464076	-0.050864839	-0.52225341	0.10076617	-0.1495601	-0.89850412	0.085255314	-0.13272713	-0.5948608	0.040144892	-0.17900776	-0.96975462	0.032453048	-0.10228712	-0.54282512	0.47012609	-0.25045151	-0.82992386	0.44686338	0.014030096	-0.52148895	0.44611244	-0.13144678	-0.81240271	0.45068435	-0.11563769	-0.671548	0.8314062	-0.2957852	-0.76647347	0.85663033	0.077820167	-0.6315278	0.93654419	-0.21881133	-0.66997592	0.94096923	0.021290258	-0.84455372	0.96206918	-0.13555346	-0.69288009	1.4184651	-0.26834496	-0.71581637	1.4054081	0.0578906	-0.78943031	1.4388436	-0.11212425	-0.81569629	1.1018808	-0.33133808	-0.7268761	1.0498421	0.11960343	-0.72381767	0.87662051	-0.35772967	-0.52472855	0.90406875	0.11971009
113	0.448	-0.38456573	0.06985396	-0.21541295	-0.77815788	0.03865034	-0.087055218	-0.51947653	0.076171404	-0.23043876	-0.917131	0.053604409	-0.05109366	-0.50412773	0.10069646	-0.14820442	-0.89828161	0.085260308	-0.13303018	-0.57537746	0.038398061	-0.17774897	-0.96970628	0.032645256	-0.10247292	-0.5350392	0.46874114	-0.25040354	-0.82647215	0.446226	0.013672365	-0.51401218	0.44522526	-0.13131829	-0.80879376	0.45019911	-0.11600341	-0.66447851	0.83012723	-0.29564273	-0.76254702	0.85590225	0.077959977	-0.62508925	0.93517422	-0.21862715	-0.66493798	0.93981207	0.021618937	-0.83857676	0.96034506	-0.13662983	-0.68702392	1.4171493	-0.26809478	-0.70989996	1.4039901	0.058201284	-0.78345279	1.4375566	-0.11185264	-0.81103199	1.1011359	-0.3316327	-0.71838416	1.0480667	0.12047574	-0.72058774	0.87547315	-0.3587397	-0.51366307	0.90543353	0.11789844
114	0.452	-0.36552467	0.072482588	-0.21280835	-0.77804116	0.038594893	-0.087070032	-0.5005324	0.075360183	-0.22896623	-0.91695543	0.05377759	-0.051317931	-0.48626383	0.10076829	-0.14679553	-0.89810416	0.08523121	-0.133412	-0.55540183	0.03641986	-0.17680697	-0.96965431	0.032855108	-0.1026903	-0.52731036	0.46728312	-0.25035164	-0.82291408	0.44552307	0.0132816	-0.50666021	0.44425434	-0.13120245	-0.80512282	0.44966647	-0.11639963	-0.65731712	0.82878654	-0.29553152	-0.75867748	0.85522331	0.078231824	-0.61830442	0.9337783	-0.2183969	-0.65988262	0.93864032	0.021900036	-0.83256659	0.95854874	-0.13771031	-0.68114291	1.4157709	-0.26785243	-0.70394485	1.4025219	0.058506356	-0.77745211	1.4362327	-0.1115769	-0.80640126	1.1003317	-0.33204728	-0.71007986	1.0462454	0.12166236	-0.71729675	0.87429478	-0.35972686	-0.50266413	0.90677617	0.1160598
115	0.456	-0.3468217	0.075335899	-0.21021677	-0.77782066	0.038601162	-0.087055276	-0.4818144	0.074788523	-0.22755187	-0.91683395	0.053969928	-0.051542136	-0.46863645	0.1009795	-0.14536498	-0.89797298	0.08517264	-0.13384419	-0.53517397	0.034347391	-0.17611636	-0.96960144	0.033082779	-0.10291341	-0.51961774	0.46576814	-0.25029731	-0.81923247	0.44477189	0.012861672	-0.49941356	0.44320388	-0.1310912	-0.801415	0.44908777	-0.11682934	-0.65004506	0.82738896	-0.29544819	-0.75454899	0.85452841	0.078220758	-0.61130581	0.93233563	-0.2181568	-0.65478903	0.93745614	0.02213336	-0.82652069	0.95668381	-0.13879551	-0.67524242	1.4143331	-0.26762126	-0.69794893	1.4009976	0.058810933	-0.77144185	1.434874	-0.11129865	-0.80189012	1.0994832	-0.33270495	-0.70179754	1.0443702	0.12284358	-0.71393361	0.87308473	-0.36070546	-0.49173388	0.90809714	0.11419565
